<svg width="862" height="157" viewBox="0 0 862 157" fill="none" xmlns="http://www.w3.org/2000/svg">
<path d="M143.249 32.7484C156.505 20.0649 173.077 14.5694 190.062 18.9642C206.349 23.1785 220.286 35.7885 230.946 53.3607C241.699 71.0872 249.901 95.0424 254.392 124.626C255.532 132.132 250.371 139.141 242.865 140.281C235.359 141.42 228.349 136.259 227.209 128.753C223.1 101.687 215.821 81.4377 207.439 67.6205C198.963 53.6494 190.108 47.3756 183.174 45.5814C176.939 43.968 169.859 45.3402 162.258 52.6127C154.304 60.2235 146.221 74.099 140.581 95.8129L140.547 95.9418L140.511 96.0697C134.083 118.983 124.092 136.619 110.564 146.834C96.1845 157.692 79.2147 159.034 63.3666 151.574C48.3748 144.516 35.2673 130.107 24.77 111.064C14.1529 91.8038 5.57138 66.6907 0.212348 36.3832C-1.10945 28.907 3.87971 21.7745 11.3559 20.4525C18.8321 19.1306 25.9646 24.1199 27.2866 31.5961C32.2481 59.6554 40.0067 81.7515 48.8481 97.7904C57.8091 114.046 67.2785 123.026 75.0776 126.698C82.0203 129.966 88.0566 129.377 93.9956 124.893C100.781 119.769 108.415 108.663 114.026 88.6879C120.428 64.1542 130.385 45.0583 143.249 32.7484Z" fill="#C5B5ED"/>
<path d="M63.561 4.2956C79.6212 -2.96236 96.564 -1.01312 110.745 10.069C123.708 20.1998 133.458 37.1668 139.898 59.0436L140.511 61.1765L140.547 61.3044L140.581 61.4333C146.224 83.1569 154.304 97.0107 162.231 104.554C169.779 111.738 176.762 113.011 182.946 111.297C189.889 109.372 198.812 102.83 207.345 88.3337C215.776 74.0107 223.08 53.0804 227.201 25.1188C228.308 17.6078 235.294 12.4164 242.805 13.5231C250.316 14.6301 255.508 21.6166 254.401 29.1276C249.92 59.5326 241.744 84.0947 231.039 102.281C220.437 120.293 206.569 133.279 190.29 137.792C173.253 142.515 156.584 137.135 143.277 124.47C130.384 112.2 120.425 93.0821 114.026 68.5573C108.413 48.5769 100.747 37.1495 93.8149 31.7321C87.6769 26.9353 81.614 26.3085 74.8832 29.3503C67.2415 32.8039 57.8289 41.5677 48.8735 57.9616C40.0402 74.132 32.2697 96.6414 27.2983 125.584C26.013 133.066 18.9049 138.091 11.4223 136.805C3.93965 135.52 -1.08464 128.412 0.20063 120.929C5.54969 89.7886 14.1196 64.2313 24.7446 44.7809C35.2475 25.5541 48.4117 11.142 63.561 4.2956Z" fill="#835EC7"/>
<path d="M322.09 132.859L302.55 31.0951H323.329L331.172 80.8096C332.089 86.1199 332.915 91.4759 333.649 96.8776C334.475 102.279 335.255 107.727 335.988 113.22H336.539C337.639 107.727 338.741 102.279 339.842 96.8776C340.942 91.4759 341.997 86.1199 343.006 80.8096L354.704 31.0951H372.18L384.014 80.8096C385.115 86.0282 386.168 91.3842 387.179 96.8776C388.28 102.279 389.381 107.727 390.481 113.22H391.17C391.902 107.727 392.636 102.279 393.371 96.8776C394.197 91.4759 394.974 86.1199 395.711 80.8096L403.83 31.0951H423.094L404.243 132.859H378.922L367.502 82.4576C366.676 78.5209 365.894 74.6296 365.162 70.7843C364.426 66.8476 363.786 62.9563 363.235 59.1109H362.685C361.949 62.9563 361.171 66.8476 360.345 70.7843C359.61 74.6296 358.877 78.5209 358.144 82.4576L346.997 132.859H322.09ZM436.721 132.859V55.9523H456.949V132.859H436.721ZM446.903 43.4549C443.326 43.4549 440.485 42.4936 438.372 40.5709C436.263 38.5569 435.207 35.8559 435.207 32.4684C435.207 29.1724 436.263 26.5173 438.372 24.5031C440.485 22.4888 443.326 21.4817 446.903 21.4817C450.299 21.4817 453.096 22.4888 455.298 24.5031C457.499 26.5173 458.601 29.1724 458.601 32.4684C458.601 35.8559 457.499 38.5569 455.298 40.5709C453.096 42.4936 450.299 43.4549 446.903 43.4549ZM500.533 134.781C495.393 134.781 490.163 133.774 484.846 131.76C479.616 129.746 475.075 127.182 471.223 124.069L480.442 111.297C483.834 113.861 487.184 115.921 490.487 117.477C493.879 118.942 497.413 119.675 501.083 119.675C504.936 119.675 507.733 118.942 509.477 117.477C511.31 115.921 512.229 113.953 512.229 111.572C512.229 109.649 511.448 108.047 509.889 106.765C508.327 105.392 506.312 104.202 503.835 103.195C501.358 102.096 498.788 101.043 496.129 100.036C492.916 98.7546 489.706 97.1983 486.497 95.3669C483.377 93.5359 480.762 91.2013 478.653 88.3629C476.54 85.4333 475.488 81.8169 475.488 77.5136C475.488 72.9359 476.678 68.9076 479.066 65.4283C481.45 61.8576 484.753 59.0653 488.974 57.0509C493.283 55.0369 498.376 54.0296 504.248 54.0296C509.841 54.0296 514.795 54.9909 519.11 56.9136C523.512 58.8363 527.273 61.0336 530.393 63.5056L521.311 75.7283C518.559 73.7143 515.807 72.1119 513.055 70.9216C510.391 69.7316 507.64 69.1363 504.798 69.1363C501.22 69.1363 498.606 69.8229 496.955 71.1963C495.303 72.5696 494.478 74.3549 494.478 76.5522C494.478 78.3836 495.166 79.9399 496.542 81.2216C497.918 82.4119 499.796 83.4649 502.184 84.3803C504.568 85.2959 507.089 86.2573 509.752 87.2642C512.318 88.1799 514.843 89.2786 517.32 90.5602C519.886 91.7506 522.226 93.2156 524.338 94.9549C526.447 96.6946 528.099 98.8462 529.292 101.409C530.575 103.881 531.219 106.903 531.219 110.473C531.219 114.96 530.024 119.08 527.641 122.833C525.346 126.496 521.906 129.425 517.32 131.623C512.824 133.729 507.227 134.781 500.533 134.781ZM580.22 134.781C573.065 134.781 566.597 133.179 560.818 129.975C555.038 126.77 550.408 122.147 546.92 116.104C543.527 110.061 541.828 102.829 541.828 94.4056C541.828 88.1799 542.792 82.5949 544.718 77.6509C546.738 72.7069 549.445 68.4956 552.837 65.0163C556.325 61.4456 560.178 58.7449 564.396 56.9136C568.709 54.9909 573.158 54.0296 577.743 54.0296C584.809 54.0296 590.727 55.6319 595.494 58.8363C600.266 61.9493 603.844 66.2983 606.228 71.8829C608.705 77.3762 609.943 83.6936 609.943 90.8349C609.943 92.6663 609.854 94.4516 609.669 96.1909C609.486 97.8389 609.256 99.1663 608.98 100.173H561.506C562.056 104.293 563.294 107.773 565.221 110.611C567.148 113.449 569.625 115.601 572.652 117.065C575.679 118.439 579.12 119.125 582.973 119.125C586.093 119.125 589.028 118.713 591.779 117.889C594.532 116.974 597.332 115.646 600.174 113.907L607.053 126.267C603.294 128.83 599.073 130.89 594.394 132.447C589.715 134.003 584.992 134.781 580.22 134.781ZM561.093 86.5776H592.605C592.605 81.4506 591.414 77.3762 589.028 74.3549C586.736 71.2423 583.066 69.6856 578.019 69.6856C575.359 69.6856 572.837 70.3266 570.451 71.6083C568.066 72.7986 566.047 74.6756 564.396 77.2389C562.744 79.7109 561.643 82.8239 561.093 86.5776ZM628.255 132.859V31.0951H661.694C669.214 31.0951 675.956 32.1022 681.922 34.1163C687.976 36.1306 692.745 39.4723 696.232 44.1416C699.811 48.7196 701.599 55.0369 701.599 63.0936C701.599 70.7843 699.811 77.1476 696.232 82.1829C692.745 87.1269 688.021 90.7892 682.059 93.1696C676.187 95.5503 669.582 96.7402 662.244 96.7402H648.621V132.859H628.255ZM648.621 80.6723H660.868C667.838 80.6723 673.022 79.2076 676.417 76.2776C679.902 73.3479 681.647 68.9533 681.647 63.0936C681.647 57.2343 679.81 53.1599 676.143 50.8709C672.565 48.4906 667.243 47.3003 660.18 47.3003H648.621V80.6723ZM747.66 134.781C740.504 134.781 734.037 133.179 728.257 129.975C722.478 126.77 717.847 122.147 714.359 116.104C710.967 110.061 709.267 102.829 709.267 94.4056C709.267 88.1799 710.231 82.5949 712.157 77.6509C714.177 72.7069 716.885 68.4956 720.276 65.0163C723.764 61.4456 727.618 58.7449 731.835 56.9136C736.149 54.9909 740.598 54.0296 745.183 54.0296C752.249 54.0296 758.167 55.6319 762.934 58.8363C767.705 61.9493 771.284 66.2983 773.667 71.8829C776.144 77.3762 777.383 83.6936 777.383 90.8349C777.383 92.6663 777.294 94.4516 777.108 96.1909C776.926 97.8389 776.695 99.1663 776.42 100.173H728.945C729.496 104.293 730.734 107.773 732.661 110.611C734.588 113.449 737.065 115.601 740.092 117.065C743.119 118.439 746.559 119.125 750.412 119.125C753.532 119.125 756.467 118.713 759.219 117.889C761.971 116.974 764.772 115.646 767.613 113.907L774.493 126.267C770.733 128.83 766.512 130.89 761.834 132.447C757.155 134.003 752.431 134.781 747.66 134.781ZM728.533 86.5776H760.044C760.044 81.4506 758.854 77.3762 756.467 74.3549C754.176 71.2423 750.505 69.6856 745.458 69.6856C742.799 69.6856 740.277 70.3266 737.89 71.6083C735.506 72.7986 733.486 74.6756 731.835 77.2389C730.184 79.7109 729.083 82.8239 728.533 86.5776ZM794.041 132.859V55.9523H810.553L812.067 66.1149H812.479C815.875 62.8189 819.59 59.9809 823.625 57.6003C827.665 55.2199 832.295 54.0296 837.524 54.0296C845.874 54.0296 851.928 56.7763 855.688 62.2696C859.452 67.6716 861.329 75.2249 861.329 84.9296V132.859H841.102V87.4016C841.102 81.4506 840.231 77.2849 838.487 74.9043C836.836 72.5239 834.084 71.3336 830.231 71.3336C827.114 71.3336 824.362 72.0663 821.974 73.5309C819.684 74.9959 817.114 77.1476 814.269 79.9856V132.859H794.041Z" fill="#FCFCFD"/>
</svg>
